<svg width="327" height="44" viewBox="0 0 327 44" fill="none" xmlns="http://www.w3.org/2000/svg">
<circle cx="22" cy="22" r="22" fill="#51267D"/>
<path d="M18.543 19.2178H25.398" stroke="#EBEDF0" stroke-width="1.5" stroke-linecap="round" stroke-linejoin="round"/>
<path fill-rule="evenodd" clip-rule="evenodd" d="M21.9702 12.5C15.5832 12.5 14.5042 13.432 14.5042 20.929C14.5042 29.322 14.3472 31.5 15.9432 31.5C17.5382 31.5 20.1432 27.816 21.9702 27.816C23.7972 27.816 26.4022 31.5 27.9972 31.5C29.5932 31.5 29.4362 29.322 29.4362 20.929C29.4362 13.432 28.3572 12.5 21.9702 12.5Z" stroke="#EBEDF0" stroke-width="1.5" stroke-linecap="round" stroke-linejoin="round"/>
<circle cx="116" cy="22" r="22" fill="#51267D"/>
<path d="M119.749 19.4714V16.4394C119.754 14.3514 118.066 12.6544 115.977 12.6494C113.888 12.6454 112.192 14.3344 112.188 16.4224V19.4714" stroke="white" stroke-width="1.5" stroke-linecap="round" stroke-linejoin="round"/>
<path fill-rule="evenodd" clip-rule="evenodd" d="M106.949 24.2074C106.949 18.9134 109.204 17.1484 115.968 17.1484C122.732 17.1484 124.987 18.9134 124.987 24.2074C124.987 29.5004 122.732 31.2654 115.968 31.2654C109.204 31.2654 106.949 29.5004 106.949 24.2074Z" stroke="white" stroke-width="1.5" stroke-linecap="round" stroke-linejoin="round"/>
<circle cx="210" cy="22" r="22" fill="#EBEDF0"/>
<path fill-rule="evenodd" clip-rule="evenodd" d="M220.76 24.7509C220.76 25.0785 220.538 25.3355 220.254 25.3355H219.645C219.361 23.4669 217.956 22.0382 216.259 22.0382C214.563 22.0382 213.157 23.4669 212.875 25.3355H207.126C206.844 23.4669 205.438 22.0382 203.741 22.0382C202.044 22.0382 200.638 23.4669 200.356 25.3355H199.747C199.463 25.3355 199.241 25.0785 199.241 24.7509V22.7125C199.241 21.9509 199.643 21.2515 200.256 20.9646L200.667 20.759C200.843 20.6753 201.013 20.5737 201.181 20.4708H217.838L218.798 20.808C219.953 21.2133 220.76 22.4734 220.76 23.8698V24.7509ZM216.258 28.5639C215.045 28.5639 214.056 27.4209 214.056 26.0185C214.056 24.6138 215.045 23.4708 216.258 23.4708C217.474 23.4708 218.463 24.6138 218.463 26.0185C218.463 27.4209 217.474 28.5639 216.258 28.5639ZM203.741 28.5639C202.527 28.5639 201.539 27.4209 201.539 26.0185C201.539 24.6138 202.527 23.4708 203.741 23.4708C204.957 23.4708 205.946 24.6138 205.946 26.0185C205.946 27.4209 204.957 28.5639 203.741 28.5639ZM202.97 18.8551L204.058 17.4133C205.026 16.1556 206.403 15.4323 207.839 15.4323H208.164V19.0357H202.813C202.865 18.9735 202.921 18.9197 202.97 18.8551ZM209.405 15.4323H209.498C210.786 15.4323 212.013 15.999 212.951 17.0236L214.593 18.8288C214.666 18.9077 214.755 18.9627 214.834 19.0357H209.405V15.4323ZM219.159 19.435L216.539 18.5132C216.134 18.3745 215.756 18.1222 215.445 17.7875L213.806 15.9846C212.634 14.7042 211.105 14 209.499 14H207.838C206.048 14 204.332 14.8967 203.126 16.4664L202.037 17.907C201.524 18.573 200.885 19.1002 200.184 19.4373L199.775 19.6418C198.697 20.1463 198 21.3514 198 22.7119V24.7504C198 25.8646 198.784 26.7684 199.746 26.7684H200.361C200.666 28.606 202.064 30 203.741 30C205.419 30 206.815 28.606 207.12 26.7684H212.881C213.185 28.606 214.581 30 216.258 30C217.936 30 219.334 28.606 219.638 26.7684H220.254C221.217 26.7684 222 25.8646 222 24.7504V23.8692C222 21.8452 220.832 20.0232 219.159 19.435Z" fill="#51267D"/>
<circle cx="305" cy="22" r="22" fill="#EBEDF0"/>
<path d="M301.439 22L303.813 24.373L308.559 19.627" stroke="#51267D" stroke-width="1.5" stroke-linecap="round" stroke-linejoin="round"/>
<path fill-rule="evenodd" clip-rule="evenodd" d="M295.75 22C295.75 28.937 298.063 31.25 305 31.25C311.937 31.25 314.25 28.937 314.25 22C314.25 15.063 311.937 12.75 305 12.75C298.063 12.75 295.75 15.063 295.75 22Z" stroke="#51267D" stroke-width="1.5" stroke-linecap="round" stroke-linejoin="round"/>
<rect x="50" y="20" width="38" height="4" rx="2" fill="#51267D"/>
<rect x="144" y="20" width="38" height="4" rx="2" fill="#EBEDF0"/>
<rect x="238" y="20" width="39" height="4" rx="2" fill="#EBEDF0"/>
</svg>
