<svg width="245" height="228" viewBox="0 0 245 228" fill="none" xmlns="http://www.w3.org/2000/svg">
<path d="M108.07 59.9064C108.07 59.9064 89.1439 44.6664 70.2237 46.7398C51.3036 48.8131 32.1875 75.3664 32.1875 75.3664L38.3125 80.4197C38.3125 80.4197 70.0584 51.7531 87.2512 72.9464C104.444 94.1397 108.07 59.9064 108.07 59.9064Z" fill="#51267D"/>
<path opacity="0.2" d="M108.07 59.9064C108.07 59.9064 89.1439 44.6664 70.2237 46.7398C51.3036 48.8131 32.1875 75.3664 32.1875 75.3664L38.3125 80.4197C38.3125 80.4197 70.0584 51.7531 87.2512 72.9464C104.444 94.1397 108.07 59.9064 108.07 59.9064Z" fill="white"/>
<path d="M93.7734 57.7803H28.7871V103.48H93.7734V57.7803Z" fill="#F4C243"/>
<path opacity="0.45" d="M198.952 155.367C197.755 155.104 196.626 154.554 195.648 153.757C194.67 152.96 193.868 151.936 193.299 150.76V150.693L164.297 90.5801L148.335 102.88L159.623 141.507C159.921 142.522 159.988 143.601 159.82 144.651C159.651 145.701 159.252 146.691 158.655 147.537C158.059 148.383 157.283 149.059 156.395 149.507C155.507 149.956 154.532 150.164 153.553 150.113C144.978 149.687 135.858 149.447 126.383 149.447C77.4319 149.447 37.748 155.653 37.748 163.313C37.748 170.973 77.4319 177.187 126.383 177.187C175.334 177.187 214.987 170.98 214.987 163.333C214.987 160.36 209.052 157.62 198.952 155.367Z" fill="#E6E6E6"/>
<path d="M106.723 158.787C106.723 158.787 107.629 162.12 110.318 162.514C113.007 162.907 113.571 165.847 111.102 166.447C108.634 167.047 102.527 163.28 102.527 163.28L102.913 159.047L106.723 158.787Z" fill="#51267D"/>
<path d="M54.3719 158.22C54.3719 158.22 51.2604 158.953 50.6969 161.84C50.1334 164.726 47.4016 165.113 47.0219 162.386C46.6421 159.66 50.5805 153.333 50.5805 153.333L54.427 154.086L54.3719 158.22Z" fill="#51267D"/>
<path d="M54.7874 108.447C54.7874 108.447 51.9209 123.007 62.2416 129.247C72.5622 135.487 105.117 124.254 100.088 159.621H107.352C107.352 159.621 116.742 130.287 92.3827 119.861L84.9898 110.734L54.7874 108.447Z" fill="black"/>
<path d="M155.008 97.9373L152.537 95.3672L137.083 112.969L139.554 115.539L155.008 97.9373Z" fill="#F4C243"/>
<path opacity="0.08" d="M155.008 97.9373L152.537 95.3672L137.083 112.969L139.554 115.539L155.008 97.9373Z" fill="black"/>
<path d="M153.805 96.6775L151.334 94.1074L135.88 111.709L138.351 114.279L153.805 96.6775Z" fill="#F4C243"/>
<path d="M160.526 99.9156C164.499 95.3904 165.472 89.3835 162.698 86.4989C159.925 83.6143 154.456 84.9443 150.483 89.4695C146.51 93.9947 145.537 100.002 148.311 102.886C151.084 105.771 156.553 104.441 160.526 99.9156Z" fill="#F4C243"/>
<path opacity="0.08" d="M160.526 99.9156C164.499 95.3904 165.472 89.3835 162.698 86.4989C159.925 83.6143 154.456 84.9443 150.483 89.4695C146.51 93.9947 145.537 100.002 148.311 102.886C151.084 105.771 156.553 104.441 160.526 99.9156Z" fill="black"/>
<path d="M159.319 98.6656C163.292 94.1404 164.265 88.1335 161.491 85.2489C158.718 82.3643 153.249 83.6942 149.276 88.2194C145.303 92.7447 144.33 98.7515 147.104 101.636C149.877 104.521 155.346 103.191 159.319 98.6656Z" fill="#F4C243"/>
<path opacity="0.57" d="M157.614 96.8923C160.239 93.903 160.881 89.9351 159.05 88.0298C157.218 86.1246 153.605 87.0034 150.981 89.9927C148.356 92.982 147.713 96.9498 149.545 98.8551C151.377 100.76 154.99 99.8816 157.614 96.8923Z" fill="white"/>
<path d="M133.677 61.5528C133.677 61.5528 130.915 65.9194 128.232 68.0661C127.972 68.2724 127.677 68.4209 127.364 68.503C127.051 68.5852 126.727 68.5995 126.409 68.545C126.091 68.4905 125.786 68.3683 125.511 68.1855C125.236 68.0027 124.998 67.7628 124.808 67.4794C123.834 65.9928 122.916 63.6728 124.135 61.1394L125.715 56.5595C126.124 55.6841 126.773 54.9681 127.571 54.5098C128.37 54.0514 129.279 53.8732 130.174 53.9995C133.524 54.2128 135.478 58.9861 133.677 61.5528Z" fill="#F4A28C"/>
<path d="M126.683 57.5L114.219 62.9667L115.75 72.62L124.735 64.64L126.683 57.5Z" fill="#F4A28C"/>
<path d="M132.619 60.8869C131.421 59.8931 130.331 58.7523 129.373 57.4869C129.286 58.3439 128.972 59.1548 128.468 59.8202C127.964 60.4857 127.293 60.9768 126.537 61.2336C125.808 61.4948 125.019 61.472 124.304 61.1692C123.588 60.8663 122.992 60.3023 122.617 59.5736L126.66 54.3736C127.212 53.6041 127.946 53.0118 128.783 52.6596C129.619 52.3075 130.528 52.2086 131.413 52.3736C132.177 52.5168 132.932 52.7127 133.673 52.9602C135.51 53.6269 136.79 56.4402 138.812 56.5336C139.015 56.5444 139.212 56.6124 139.384 56.731C139.556 56.8497 139.697 57.0148 139.792 57.2103C139.888 57.4058 139.935 57.625 139.93 57.8464C139.924 58.0678 139.866 58.2839 139.761 58.4736C138.769 60.2669 136.601 62.5469 133.948 61.6336C133.471 61.4659 133.022 61.2137 132.619 60.8869V60.8869Z" fill="black"/>
<path d="M127.032 61.4737C127.032 61.4737 128.196 59.8737 127.032 59.0137C125.868 58.1537 124.16 60.4603 125.476 62.0003L127.032 61.4737Z" fill="#F4A28C"/>
<path d="M131.81 64.2061L131.663 66.7194C131.651 66.8601 131.607 66.9952 131.534 67.1127C131.462 67.2301 131.364 67.3262 131.249 67.3923C131.135 67.4584 131.007 67.4924 130.877 67.4913C130.747 67.4902 130.619 67.4541 130.506 67.3861L128.846 66.3861L131.81 64.2061Z" fill="#F4A28C"/>
<path opacity="0.31" d="M123.726 65.5265C123.726 65.5265 124.099 62.4932 125.104 61.3398C125.104 61.3398 120.565 63.0065 120.461 68.4399L123.726 65.5265Z" fill="#CE8172"/>
<path opacity="0.08" d="M41.4414 102.299C41.4414 102.299 41.2454 70.8527 75.9497 64.2061L55.5596 103.479H41.4721L41.4414 102.299Z" fill="black"/>
<path d="M117.405 75.9596L116.376 69.4463C115.974 66.79 114.958 64.2883 113.425 62.1755C111.892 60.0627 109.892 58.408 107.611 57.3663C105.626 56.5025 103.55 55.9091 101.431 55.5996C98.7114 55.1863 94.9017 55.5997 90.6387 56.8197C72.2759 62.0663 58.8009 78.9996 56.0141 99.413L54.7891 108.446L84.9914 110.733C84.9914 110.733 83.4602 101.4 94.1789 101.4C104.898 101.4 118.471 101.52 117.405 75.9596Z" fill="#51267D"/>
<path opacity="0.08" d="M87.809 65.8604C87.809 65.8604 73.1518 68.667 57.0431 93.9337L54.7891 108.447L77.7088 110.3L87.809 65.8604Z" fill="black"/>
<path d="M104.616 77.4801C107.476 67.0935 96.3839 58.6935 88.4765 65.2935C81.8616 70.8068 74.3891 80.7335 74.0951 97.4868C73.5867 127.72 100.194 122.313 136.203 110.733L135.057 101.927C135.057 101.927 91.9372 110.8 97.7927 95.5468C100.243 89.1668 103.097 83.0068 104.616 77.4801Z" fill="#51267D"/>
<path opacity="0.2" d="M104.616 77.4801C107.476 67.0935 96.3839 58.6935 88.4765 65.2935C81.8616 70.8068 74.3891 80.7335 74.0951 97.4868C73.5867 127.72 100.194 122.313 136.203 110.733L135.057 101.927C135.057 101.927 91.9372 110.8 97.7927 95.5468C100.243 89.1668 103.097 83.0068 104.616 77.4801Z" fill="white"/>
<path d="M89.4809 119.934C89.4809 119.934 90.369 153.367 54.4275 159.62L53.0371 152.534C53.0371 152.534 81.8246 144.767 63.2291 123.96L89.4809 119.934Z" fill="black"/>
<path opacity="0.08" d="M146.093 164.894C148.251 164.894 150.001 164.189 150.001 163.32C150.001 162.451 148.251 161.747 146.093 161.747C143.935 161.747 142.186 162.451 142.186 163.32C142.186 164.189 143.935 164.894 146.093 164.894Z" fill="black"/>
<path opacity="0.08" d="M161.039 160.821C163.197 160.821 164.946 160.116 164.946 159.247C164.946 158.378 163.197 157.674 161.039 157.674C158.88 157.674 157.131 158.378 157.131 159.247C157.131 160.116 158.88 160.821 161.039 160.821Z" fill="black"/>
<path opacity="0.08" d="M176.087 163.967C178.246 163.967 179.995 163.263 179.995 162.394C179.995 161.525 178.246 160.82 176.087 160.82C173.929 160.82 172.18 161.525 172.18 162.394C172.18 163.263 173.929 163.967 176.087 163.967Z" fill="black"/>
<path opacity="0.08" d="M199.13 165.547C201.289 165.547 203.038 164.843 203.038 163.974C203.038 163.105 201.289 162.4 199.13 162.4C196.972 162.4 195.223 163.105 195.223 163.974C195.223 164.843 196.972 165.547 199.13 165.547Z" fill="black"/>
<path opacity="0.08" d="M131.277 160.467C133.482 160.467 135.27 159.745 135.27 158.854C135.27 157.963 133.482 157.24 131.277 157.24C129.071 157.24 127.283 157.963 127.283 158.854C127.283 159.745 129.071 160.467 131.277 160.467Z" fill="black"/>
<path d="M135.277 103.62C135.277 103.62 145.188 102.48 146.057 106.693C146.927 110.907 145.028 113.14 136.11 110.027L135.277 103.62Z" fill="#F4A28C"/>
<path d="M36.5488 103.48C36.5488 103.48 37.976 109.773 43.6906 108.447C49.4052 107.12 45.3259 99.4 36.5488 103.48Z" fill="#F4A28C"/>
<path d="M65.1456 225H63.8856V220.338H58.7616V225H57.5016V215.004H58.7616V219.232H63.8856V215.004H65.1456V225ZM68.8725 222.074C68.8725 222.186 68.8678 222.354 68.8585 222.578C68.8492 222.802 68.8352 223.026 68.8165 223.25C68.8072 223.474 68.7978 223.651 68.7885 223.782L72.8065 217.496H74.3185V225H73.1705V220.576C73.1705 220.427 73.1705 220.231 73.1705 219.988C73.1798 219.745 73.1892 219.507 73.1985 219.274C73.2078 219.031 73.2172 218.849 73.2265 218.728L69.2365 225H67.7105V217.496H68.8725V222.074ZM77.7846 220.226C77.7846 221.085 78.2653 221.514 79.2266 221.514C79.6933 221.514 80.1179 221.444 80.5006 221.304C80.8833 221.155 81.2753 220.959 81.6766 220.716V217.496H82.9086V225H81.6766V221.654C81.2566 221.925 80.8413 222.139 80.4306 222.298C80.0293 222.447 79.5439 222.522 78.9746 222.522C78.2093 222.522 77.6119 222.321 77.1826 221.92C76.7626 221.519 76.5526 220.982 76.5526 220.31V217.496H77.7846V220.226ZM88.1905 217.356C88.8345 217.356 89.3852 217.496 89.8425 217.776C90.3092 218.056 90.6639 218.453 90.9065 218.966C91.1585 219.47 91.2845 220.063 91.2845 220.744V221.486H86.1465C86.1652 222.335 86.3799 222.984 86.7905 223.432C87.2105 223.871 87.7939 224.09 88.5405 224.09C89.0165 224.09 89.4365 224.048 89.8005 223.964C90.1739 223.871 90.5565 223.74 90.9485 223.572V224.65C90.5659 224.818 90.1879 224.939 89.8145 225.014C89.4412 225.098 88.9979 225.14 88.4845 225.14C87.7752 225.14 87.1452 224.995 86.5945 224.706C86.0532 224.417 85.6285 223.987 85.3205 223.418C85.0219 222.839 84.8725 222.135 84.8725 221.304C84.8725 220.483 85.0079 219.778 85.2785 219.19C85.5585 218.602 85.9459 218.149 86.4405 217.832C86.9445 217.515 87.5279 217.356 88.1905 217.356ZM88.1765 218.364C87.5885 218.364 87.1219 218.555 86.7765 218.938C86.4405 219.311 86.2399 219.834 86.1745 220.506H89.9965C89.9872 219.871 89.8379 219.358 89.5485 218.966C89.2592 218.565 88.8019 218.364 88.1765 218.364ZM97.7729 217.496V218.532H94.4269V225H93.1949V217.496H97.7729ZM105.639 221.234C105.639 222.475 105.321 223.437 104.687 224.118C104.061 224.799 103.212 225.14 102.139 225.14C101.476 225.14 100.883 224.991 100.361 224.692C99.8475 224.384 99.4415 223.941 99.1428 223.362C98.8441 222.774 98.6948 222.065 98.6948 221.234C98.6948 219.993 99.0075 219.036 99.6328 218.364C100.258 217.692 101.107 217.356 102.181 217.356C102.862 217.356 103.459 217.51 103.973 217.818C104.495 218.117 104.901 218.555 105.191 219.134C105.489 219.703 105.639 220.403 105.639 221.234ZM99.9688 221.234C99.9688 222.121 100.141 222.825 100.487 223.348C100.841 223.861 101.401 224.118 102.167 224.118C102.923 224.118 103.478 223.861 103.833 223.348C104.187 222.825 104.365 222.121 104.365 221.234C104.365 220.347 104.187 219.652 103.833 219.148C103.478 218.644 102.918 218.392 102.153 218.392C101.387 218.392 100.832 218.644 100.487 219.148C100.141 219.652 99.9688 220.347 99.9688 221.234ZM112.05 217.496V220.618H116.124V217.496H117.356V225H116.124V221.654H112.05V225H110.818V217.496H112.05ZM122.63 217.356C123.274 217.356 123.825 217.496 124.282 217.776C124.749 218.056 125.103 218.453 125.346 218.966C125.598 219.47 125.724 220.063 125.724 220.744V221.486H120.586C120.605 222.335 120.819 222.984 121.23 223.432C121.65 223.871 122.233 224.09 122.98 224.09C123.456 224.09 123.876 224.048 124.24 223.964C124.613 223.871 124.996 223.74 125.388 223.572V224.65C125.005 224.818 124.627 224.939 124.254 225.014C123.881 225.098 123.437 225.14 122.924 225.14C122.215 225.14 121.585 224.995 121.034 224.706C120.493 224.417 120.068 223.987 119.76 223.418C119.461 222.839 119.312 222.135 119.312 221.304C119.312 220.483 119.447 219.778 119.718 219.19C119.998 218.602 120.385 218.149 120.88 217.832C121.384 217.515 121.967 217.356 122.63 217.356ZM122.616 218.364C122.028 218.364 121.561 218.555 121.216 218.938C120.88 219.311 120.679 219.834 120.614 220.506H124.436C124.427 219.871 124.277 219.358 123.988 218.966C123.699 218.565 123.241 218.364 122.616 218.364ZM132.093 217.496V220.618H136.167V217.496H137.399V225H136.167V221.654H132.093V225H130.861V217.496H132.093ZM142.617 217.37C143.532 217.37 144.208 217.571 144.647 217.972C145.086 218.373 145.305 219.013 145.305 219.89V225H144.409L144.171 223.936H144.115C143.788 224.347 143.443 224.65 143.079 224.846C142.724 225.042 142.23 225.14 141.595 225.14C140.914 225.14 140.349 224.963 139.901 224.608C139.453 224.244 139.229 223.679 139.229 222.914C139.229 222.167 139.523 221.593 140.111 221.192C140.699 220.781 141.604 220.557 142.827 220.52L144.101 220.478V220.03C144.101 219.405 143.966 218.971 143.695 218.728C143.424 218.485 143.042 218.364 142.547 218.364C142.155 218.364 141.782 218.425 141.427 218.546C141.072 218.658 140.741 218.789 140.433 218.938L140.055 218.014C140.382 217.837 140.769 217.687 141.217 217.566C141.665 217.435 142.132 217.37 142.617 217.37ZM142.981 221.374C142.048 221.411 141.399 221.561 141.035 221.822C140.68 222.083 140.503 222.452 140.503 222.928C140.503 223.348 140.629 223.656 140.881 223.852C141.142 224.048 141.474 224.146 141.875 224.146C142.51 224.146 143.037 223.973 143.457 223.628C143.877 223.273 144.087 222.732 144.087 222.004V221.332L142.981 221.374ZM153.699 214.388C153.633 215.088 153.395 215.62 152.985 215.984C152.583 216.339 151.939 216.516 151.053 216.516C150.138 216.516 149.489 216.339 149.107 215.984C148.733 215.629 148.523 215.097 148.477 214.388H149.625C149.671 214.892 149.802 215.233 150.017 215.41C150.241 215.578 150.595 215.662 151.081 215.662C151.51 215.662 151.846 215.573 152.089 215.396C152.341 215.209 152.49 214.873 152.537 214.388H153.699ZM148.785 222.074C148.785 222.186 148.78 222.354 148.771 222.578C148.761 222.802 148.747 223.026 148.729 223.25C148.719 223.474 148.71 223.651 148.701 223.782L152.719 217.496H154.231V225H153.083V220.576C153.083 220.427 153.083 220.231 153.083 219.988C153.092 219.745 153.101 219.507 153.111 219.274C153.12 219.031 153.129 218.849 153.139 218.728L149.149 225H147.623V217.496H148.785V222.074ZM162.191 217.496V223.964H163.283V227.604H162.093V225H156.871V227.604H155.695V223.964H156.297C156.941 223.077 157.421 222.069 157.739 220.94C158.065 219.801 158.233 218.653 158.243 217.496H162.191ZM159.335 218.462C159.297 219.097 159.199 219.755 159.041 220.436C158.882 221.108 158.677 221.752 158.425 222.368C158.182 222.984 157.897 223.516 157.571 223.964H161.001V218.462H159.335ZM167.651 217.356C168.295 217.356 168.846 217.496 169.303 217.776C169.77 218.056 170.125 218.453 170.367 218.966C170.619 219.47 170.745 220.063 170.745 220.744V221.486H165.607C165.626 222.335 165.841 222.984 166.251 223.432C166.671 223.871 167.255 224.09 168.001 224.09C168.477 224.09 168.897 224.048 169.261 223.964C169.635 223.871 170.017 223.74 170.409 223.572V224.65C170.027 224.818 169.649 224.939 169.275 225.014C168.902 225.098 168.459 225.14 167.945 225.14C167.236 225.14 166.606 224.995 166.055 224.706C165.514 224.417 165.089 223.987 164.781 223.418C164.483 222.839 164.333 222.135 164.333 221.304C164.333 220.483 164.469 219.778 164.739 219.19C165.019 218.602 165.407 218.149 165.901 217.832C166.405 217.515 166.989 217.356 167.651 217.356ZM167.637 218.364C167.049 218.364 166.583 218.555 166.237 218.938C165.901 219.311 165.701 219.834 165.635 220.506H169.457C169.448 219.871 169.299 219.358 169.009 218.966C168.72 218.565 168.263 218.364 167.637 218.364ZM173.888 217.496V220.618H177.962V217.496H179.194V225H177.962V221.654H173.888V225H172.656V217.496H173.888ZM188.094 221.234C188.094 222.475 187.777 223.437 187.142 224.118C186.517 224.799 185.667 225.14 184.594 225.14C183.931 225.14 183.339 224.991 182.816 224.692C182.303 224.384 181.897 223.941 181.598 223.362C181.299 222.774 181.15 222.065 181.15 221.234C181.15 219.993 181.463 219.036 182.088 218.364C182.713 217.692 183.563 217.356 184.636 217.356C185.317 217.356 185.915 217.51 186.428 217.818C186.951 218.117 187.357 218.555 187.646 219.134C187.945 219.703 188.094 220.403 188.094 221.234ZM182.424 221.234C182.424 222.121 182.597 222.825 182.942 223.348C183.297 223.861 183.857 224.118 184.622 224.118C185.378 224.118 185.933 223.861 186.288 223.348C186.643 222.825 186.82 222.121 186.82 221.234C186.82 220.347 186.643 219.652 186.288 219.148C185.933 218.644 185.373 218.392 184.608 218.392C183.843 218.392 183.287 218.644 182.942 219.148C182.597 219.652 182.424 220.347 182.424 221.234Z" fill="#818C99"/>
</svg>
