
<svg width="327" height="108" viewBox="0 0 327 108" fill="none" xmlns="http://www.w3.org/2000/svg">
<path d="M3.40332 36.6543H5.06348C6.66553 36.6543 7.62012 37.4014 7.62012 38.6548C7.62012 39.875 6.60742 40.7134 5.11328 40.7134C3.57764 40.7134 2.51514 39.958 2.40723 38.7793H0.614258C0.722168 40.8877 2.51514 42.2905 5.12158 42.2905C7.62842 42.2905 9.5293 40.7632 9.5293 38.7461C9.5293 37.1191 8.5332 35.9819 6.93115 35.7827V35.7163C8.25928 35.4009 9.16406 34.2886 9.16406 32.9521C9.16406 31.0596 7.51221 29.7314 5.15479 29.7314C2.66455 29.7314 1.0459 31.0596 0.921387 33.2012H2.68115C2.78906 32.0142 3.69385 31.2837 5.09668 31.2837C6.47461 31.2837 7.32959 31.9976 7.32959 33.1431C7.32959 34.2969 6.3833 35.1021 5.01367 35.1021H3.40332V36.6543ZM14.1694 40.73C13.2065 40.73 12.5757 40.2319 12.5757 39.4683C12.5757 38.7212 13.1816 38.248 14.2524 38.1733L16.4023 38.0405V38.7295C16.4023 39.8667 15.4229 40.73 14.1694 40.73ZM13.6714 42.1494C14.8169 42.1494 15.9209 41.5352 16.4272 40.564H16.4688V42H18.187V35.9819C18.187 34.2305 16.834 33.1099 14.7173 33.1099C12.5591 33.1099 11.2144 34.272 11.1147 35.8491H12.8081C12.9658 35.0688 13.6133 34.5708 14.6509 34.5708C15.7466 34.5708 16.4023 35.1519 16.4023 36.123V36.7954L14.0117 36.9365C11.9365 37.0527 10.7661 37.9907 10.7661 39.5181C10.7661 41.0869 11.9614 42.1494 13.6714 42.1494ZM23.6157 37.3682L27.4839 33.2676H25.3423L21.9224 37.0029H21.856V33.2676H20.0713V42H21.856V37.9741H21.9224L25.3838 42H27.6333L23.6157 37.3682ZM31.6011 40.73C30.6382 40.73 30.0073 40.2319 30.0073 39.4683C30.0073 38.7212 30.6133 38.248 31.6841 38.1733L33.834 38.0405V38.7295C33.834 39.8667 32.8545 40.73 31.6011 40.73ZM31.103 42.1494C32.2485 42.1494 33.3525 41.5352 33.8589 40.564H33.9004V42H35.6187V35.9819C35.6187 34.2305 34.2656 33.1099 32.1489 33.1099C29.9907 33.1099 28.646 34.272 28.5464 35.8491H30.2397C30.3975 35.0688 31.0449 34.5708 32.0825 34.5708C33.1782 34.5708 33.834 35.1519 33.834 36.123V36.7954L31.4434 36.9365C29.3682 37.0527 28.1978 37.9907 28.1978 39.5181C28.1978 41.0869 29.3931 42.1494 31.103 42.1494ZM40.6406 42.166C42.8071 42.166 44.21 41.0703 44.21 39.4102C44.21 38.4141 43.6206 37.6919 42.5083 37.4346V37.3682C43.355 37.1523 43.9028 36.397 43.9028 35.5088C43.9028 34.0562 42.7573 33.1099 40.6406 33.1099C38.6899 33.1099 37.3867 34.0811 37.2041 35.6333H38.9224C39.0386 34.9526 39.686 34.5376 40.6489 34.5376C41.6699 34.5376 42.1514 35.0107 42.1514 35.6831C42.1514 36.4468 41.6284 36.8286 40.624 36.8286H39.3706V38.1484H40.6489C41.8359 38.1484 42.4253 38.5469 42.4253 39.4185C42.4253 40.1904 41.7861 40.7217 40.6406 40.7217C39.6362 40.7217 38.9722 40.3066 38.7896 39.5513H37.0215C37.1792 41.1616 38.5986 42.166 40.6406 42.166ZM53.0005 42.166C55.499 42.166 57.1426 40.4478 57.1426 37.6338C57.1426 34.8281 55.4907 33.1099 53.0005 33.1099C50.5103 33.1099 48.8584 34.8281 48.8584 37.6338C48.8584 40.4478 50.502 42.166 53.0005 42.166ZM53.0005 40.6885C51.5977 40.6885 50.6846 39.5762 50.6846 37.6338C50.6846 35.6997 51.5977 34.5874 53.0005 34.5874C54.4033 34.5874 55.3164 35.6997 55.3164 37.6338C55.3164 39.5762 54.4116 40.6885 53.0005 40.6885ZM62.9033 40.6719C61.1934 40.6221 60.1143 39.4932 60.1143 37.6338C60.1143 35.7827 61.2017 34.6372 62.9033 34.5957V40.6719ZM67.4189 37.6338C67.4189 39.4932 66.3232 40.6304 64.6299 40.6719V34.5957C66.3315 34.6455 67.4189 35.7744 67.4189 37.6338ZM62.895 42.1162V44.8887H64.6382V42.1162C67.394 42.0664 69.2285 40.3398 69.2285 37.6338C69.2285 34.9194 67.4023 33.2095 64.6382 33.1597V30.437H62.895V33.1597C60.1226 33.2012 58.2964 34.9277 58.2964 37.6338C58.2964 40.3564 60.1143 42.0581 62.895 42.1162ZM74.5327 42.166C77.0312 42.166 78.6748 40.4478 78.6748 37.6338C78.6748 34.8281 77.0229 33.1099 74.5327 33.1099C72.0425 33.1099 70.3906 34.8281 70.3906 37.6338C70.3906 40.4478 72.0342 42.166 74.5327 42.166ZM74.5327 40.6885C73.1299 40.6885 72.2168 39.5762 72.2168 37.6338C72.2168 35.6997 73.1299 34.5874 74.5327 34.5874C75.9355 34.5874 76.8486 35.6997 76.8486 37.6338C76.8486 39.5762 75.9438 40.6885 74.5327 40.6885ZM84.7759 33.1265C83.5142 33.1265 82.5098 33.7656 81.9951 34.77H81.9619V33.2676H80.2271V44.8887H82.02V40.564H82.0615C82.5596 41.5352 83.5557 42.1494 84.8091 42.1494C87.0005 42.1494 88.4531 40.3979 88.4531 37.6338C88.4531 34.8696 86.9922 33.1265 84.7759 33.1265ZM84.3027 40.6304C82.9248 40.6304 82.0117 39.4517 82.0117 37.6338C82.0117 35.8325 82.9331 34.6372 84.3027 34.6372C85.7222 34.6372 86.6104 35.8076 86.6104 37.6338C86.6104 39.4683 85.7222 40.6304 84.3027 40.6304ZM91.7236 42V35.9404H91.7817L94.3965 41.6597H95.708L98.3228 35.9404H98.3809V42H100.124V33.2676H97.9243L95.1104 39.6675H95.0439L92.2466 33.2676H89.9971V42H91.7236ZM104.689 38.0239L104.93 34.687H107.62V42H109.404V33.2676H103.353L103.054 37.9492C102.955 39.4683 102.656 40.481 101.809 40.481C101.585 40.481 101.419 40.4395 101.336 40.4146V41.9917C101.444 42.0332 101.651 42.083 101.942 42.083C103.901 42.083 104.523 40.4976 104.689 38.0239ZM114.991 34.5542C116.244 34.5542 117.091 35.4922 117.132 36.8286H112.766C112.857 35.5088 113.737 34.5542 114.991 34.5542ZM117.124 39.4351C116.883 40.1987 116.128 40.7134 115.107 40.7134C113.671 40.7134 112.758 39.709 112.758 38.1899V38.082H118.925V37.4678C118.925 34.8198 117.415 33.1099 114.991 33.1099C112.525 33.1099 110.948 34.936 110.948 37.6753C110.948 40.4312 112.5 42.166 115.065 42.166C117.066 42.166 118.577 41.0288 118.826 39.4351H117.124ZM126.197 42H127.981V33.2676H126.197V36.7871H122.246V33.2676H120.461V42H122.246V38.1982H126.197V42Z" fill="#51267D"/>
<circle cx="22" cy="86" r="22" fill="#51267D"/>
<path d="M18.543 83.2178H25.398" stroke="#EBEDF0" stroke-width="1.5" stroke-linecap="round" stroke-linejoin="round"/>
<path fill-rule="evenodd" clip-rule="evenodd" d="M21.9702 76.5C15.5832 76.5 14.5042 77.432 14.5042 84.929C14.5042 93.322 14.3472 95.5 15.9432 95.5C17.5382 95.5 20.1432 91.816 21.9702 91.816C23.7972 91.816 26.4022 95.5 27.9972 95.5C29.5932 95.5 29.4362 93.322 29.4362 84.929C29.4362 77.432 28.3572 76.5 21.9702 76.5Z" stroke="#EBEDF0" stroke-width="1.5" stroke-linecap="round" stroke-linejoin="round"/>
<circle cx="163" cy="86" r="22" fill="#EBEDF0"/>
<path d="M166.749 83.4714V80.4394C166.754 78.3514 165.066 76.6544 162.977 76.6494C160.888 76.6454 159.192 78.3344 159.188 80.4224V83.4714" stroke="#51267D" stroke-width="1.5" stroke-linecap="round" stroke-linejoin="round"/>
<path fill-rule="evenodd" clip-rule="evenodd" d="M153.949 88.2074C153.949 82.9134 156.204 81.1484 162.968 81.1484C169.732 81.1484 171.987 82.9134 171.987 88.2074C171.987 93.5004 169.732 95.2654 162.968 95.2654C156.204 95.2654 153.949 93.5004 153.949 88.2074Z" stroke="#51267D" stroke-width="1.5" stroke-linecap="round" stroke-linejoin="round"/>
<circle cx="305" cy="86" r="22" fill="#EBEDF0"/>
<path d="M301.439 86L303.813 88.373L308.559 83.627" stroke="#51267D" stroke-width="1.5" stroke-linecap="round" stroke-linejoin="round"/>
<path fill-rule="evenodd" clip-rule="evenodd" d="M295.75 86C295.75 92.937 298.063 95.25 305 95.25C311.937 95.25 314.25 92.937 314.25 86C314.25 79.063 311.937 76.75 305 76.75C298.063 76.75 295.75 79.063 295.75 86Z" stroke="#51267D" stroke-width="1.5" stroke-linecap="round" stroke-linejoin="round"/>
<rect x="50" y="84" width="85" height="4" rx="2" fill="#51267D"/>
<rect x="191" y="84" width="86" height="4" rx="2" fill="#EBEDF0"/>
<path d="M7.41211 15.2832C10.6543 15.2832 12.9199 13.5254 13.457 10.6348H10.957C10.498 12.1875 9.19922 13.0957 7.42188 13.0957C4.98047 13.0957 3.4375 11.1133 3.4375 7.94922C3.4375 4.80469 4.99023 2.8125 7.41211 2.8125C9.15039 2.8125 10.5371 3.85742 10.957 5.47852H13.4473C13.0273 2.58789 10.5957 0.625 7.41211 0.625C3.4082 0.625 0.859375 3.45703 0.859375 7.94922C0.859375 12.4707 3.38867 15.2832 7.41211 15.2832ZM23.7491 4.64844H14.9698V6.52344H18.1534V15H20.5655V6.52344H23.7491V4.64844ZM29.1487 13.3301C28.094 13.3301 27.3909 12.793 27.3909 11.9434C27.3909 11.123 28.0647 10.5957 29.2366 10.5176L31.6291 10.3711V11.1621C31.6291 12.4121 30.5256 13.3301 29.1487 13.3301ZM28.4163 15.166C29.7444 15.166 31.0432 14.4727 31.6389 13.3496H31.6877V15H34.0315V7.87109C34.0315 5.79102 32.3616 4.43359 29.7932 4.43359C27.1565 4.43359 25.5061 5.82031 25.3987 7.75391H27.6545C27.8108 6.89453 28.5432 6.33789 29.6955 6.33789C30.8967 6.33789 31.6291 6.96289 31.6291 8.04688V8.78906L28.8948 8.94531C26.3752 9.10156 24.9592 10.2051 24.9592 12.041C24.9592 13.9062 26.4143 15.166 28.4163 15.166ZM44.5091 4.64844H35.7298V6.52344H38.9134V15H41.3255V6.52344H44.5091V4.64844ZM47.5552 18.8477C49.9184 18.8477 51.061 17.9785 51.9497 15.4102L55.6899 4.64844H53.1313L50.6899 12.9297H50.6509L48.2095 4.64844H45.5532L49.2348 15.0098C49.2446 15.0391 49.0981 15.5566 49.0981 15.5859C48.8247 16.543 48.3071 16.9238 47.3013 16.9238C47.1548 16.9238 46.7251 16.9141 46.5981 16.8848V18.8086C46.7251 18.8379 47.4184 18.8477 47.5552 18.8477ZM66.1773 8.05664C65.8941 6.03516 64.2438 4.43359 61.6363 4.43359C58.6285 4.43359 56.7047 6.54297 56.7047 9.82422C56.7047 13.1543 58.6285 15.2051 61.6559 15.2051C64.1852 15.2051 65.9039 13.7695 66.1969 11.6016H63.8922C63.6188 12.6367 62.8473 13.2422 61.6754 13.2422C60.1422 13.2422 59.1559 11.9629 59.1559 9.82422C59.1559 7.72461 60.1324 6.40625 61.6656 6.40625C62.8766 6.40625 63.6188 7.12891 63.8727 8.05664H66.1773ZM76.5272 15.2051C79.1932 15.2051 80.8924 13.916 80.8924 11.9141C80.8924 10.752 80.2088 9.90234 78.91 9.58984V9.51172C79.9061 9.24805 80.5311 8.37891 80.5311 7.33398C80.5311 5.55664 79.1053 4.43359 76.4979 4.43359C74.076 4.43359 72.494 5.63477 72.2889 7.58789H74.5936C74.7303 6.78711 75.4334 6.31836 76.4979 6.31836C77.6209 6.31836 78.1581 6.83594 78.1581 7.57812C78.1581 8.41797 77.5819 8.82812 76.4784 8.82812H75.0526V10.5078H76.5272C77.826 10.5078 78.4803 10.9375 78.4803 11.875C78.4803 12.7148 77.7772 13.291 76.5272 13.291C75.3944 13.291 74.6522 12.8125 74.4373 11.9238H72.0741C72.2694 13.9648 73.9784 15.2051 76.5272 15.2051ZM86.8584 13.3301C85.8037 13.3301 85.1005 12.793 85.1005 11.9434C85.1005 11.123 85.7744 10.5957 86.9463 10.5176L89.3388 10.3711V11.1621C89.3388 12.4121 88.2353 13.3301 86.8584 13.3301ZM86.1259 15.166C87.4541 15.166 88.7529 14.4727 89.3486 13.3496H89.3974V15H91.7412V7.87109C91.7412 5.79102 90.0713 4.43359 87.5029 4.43359C84.8662 4.43359 83.2158 5.82031 83.1084 7.75391H85.3642C85.5205 6.89453 86.2529 6.33789 87.4052 6.33789C88.6064 6.33789 89.3388 6.96289 89.3388 8.04688V8.78906L86.6045 8.94531C84.0849 9.10156 82.6689 10.2051 82.6689 12.041C82.6689 13.9062 84.124 15.166 86.1259 15.166ZM98.9864 9.48242L103.371 4.64844H100.539L96.7501 8.96484H96.672V4.64844H94.2501V15H96.672V10.3711H96.7501L100.598 15H103.576L98.9864 9.48242ZM108.79 13.3301C107.736 13.3301 107.032 12.793 107.032 11.9434C107.032 11.123 107.706 10.5957 108.878 10.5176L111.271 10.3711V11.1621C111.271 12.4121 110.167 13.3301 108.79 13.3301ZM108.058 15.166C109.386 15.166 110.685 14.4727 111.28 13.3496H111.329V15H113.673V7.87109C113.673 5.79102 112.003 4.43359 109.435 4.43359C106.798 4.43359 105.148 5.82031 105.04 7.75391H107.296C107.452 6.89453 108.185 6.33789 109.337 6.33789C110.538 6.33789 111.271 6.96289 111.271 8.04688V8.78906L108.536 8.94531C106.017 9.10156 104.601 10.2051 104.601 12.041C104.601 13.9062 106.056 15.166 108.058 15.166ZM120.118 15.2051C122.784 15.2051 124.483 13.916 124.483 11.9141C124.483 10.752 123.799 9.90234 122.5 9.58984V9.51172C123.496 9.24805 124.121 8.37891 124.121 7.33398C124.121 5.55664 122.696 4.43359 120.088 4.43359C117.666 4.43359 116.084 5.63477 115.879 7.58789H118.184C118.321 6.78711 119.024 6.31836 120.088 6.31836C121.211 6.31836 121.748 6.83594 121.748 7.57812C121.748 8.41797 121.172 8.82812 120.069 8.82812H118.643V10.5078H120.118C121.416 10.5078 122.071 10.9375 122.071 11.875C122.071 12.7148 121.368 13.291 120.118 13.291C118.985 13.291 118.243 12.8125 118.028 11.9238H115.664C115.86 13.9648 117.569 15.2051 120.118 15.2051ZM130.449 13.3301C129.394 13.3301 128.691 12.793 128.691 11.9434C128.691 11.123 129.365 10.5957 130.537 10.5176L132.929 10.3711V11.1621C132.929 12.4121 131.826 13.3301 130.449 13.3301ZM129.716 15.166C131.044 15.166 132.343 14.4727 132.939 13.3496H132.988V15H135.331V7.87109C135.331 5.79102 133.662 4.43359 131.093 4.43359C128.456 4.43359 126.806 5.82031 126.699 7.75391H128.955C129.111 6.89453 129.843 6.33789 130.996 6.33789C132.197 6.33789 132.929 6.96289 132.929 8.04688V8.78906L130.195 8.94531C127.675 9.10156 126.259 10.2051 126.259 12.041C126.259 13.9062 127.714 15.166 129.716 15.166ZM144.881 15V5.25391H145.047L151.668 15H153.845V0.908203H151.424V10.6445H151.258L144.636 0.908203H142.449V15H144.881ZM158.894 7.70508C160.984 7.70508 162.537 6.34766 162.537 4.19922C162.537 2.06055 160.984 0.712891 158.894 0.712891C156.834 0.712891 155.31 2.06055 155.31 4.19922C155.31 6.34766 156.843 7.70508 158.894 7.70508ZM158.894 6.09375C157.898 6.09375 157.263 5.35156 157.263 4.19922C157.263 3.02734 157.898 2.31445 158.894 2.31445C159.949 2.31445 160.584 3.02734 160.584 4.19922C160.584 5.35156 159.92 6.09375 158.894 6.09375ZM162.215 10.7031V8.70117H155.652V10.7031H162.215ZM168.093 15H170.563V0.908203H168.073L164.391 3.49609V5.86914L168.034 3.31055H168.093V15ZM177.486 8.7207H179.225C180.973 8.7207 182.047 9.58984 182.047 11.0156C182.047 12.3145 180.904 13.2227 179.283 13.2227C177.603 13.2227 176.549 12.3633 176.432 11.0742H174.029C174.156 13.584 176.168 15.2832 179.264 15.2832C182.34 15.2832 184.605 13.6035 184.605 11.1133C184.605 9.15039 183.238 7.86133 181.129 7.70508V7.64648C182.867 7.34375 184.039 6.08398 184.039 4.33594C184.039 2.13867 182.066 0.625 179.293 0.625C176.383 0.625 174.439 2.26562 174.303 4.79492H176.646C176.744 3.47656 177.721 2.62695 179.176 2.62695C180.758 2.62695 181.617 3.44727 181.617 4.67773C181.617 5.9375 180.631 6.82617 179.185 6.82617H177.486V8.7207ZM193.667 15H196.069V12.334H197.964V10.2734H196.069V0.908203H192.485C189.429 5.35156 187.856 7.86133 186.636 10.166V12.334H193.667V15ZM188.921 10.2637C190.044 8.1543 191.392 6.07422 193.667 2.77344H193.706V10.332H188.921V10.2637ZM199.858 5.08789V5.11719H202.221V5.07812C202.221 3.68164 203.315 2.64648 204.779 2.64648C206.176 2.64648 207.221 3.57422 207.221 4.73633C207.221 5.79102 206.781 6.51367 205.18 8.14453L199.994 13.3008V15H209.897V12.9395H203.354V12.8906L206.84 9.44336C208.686 7.57812 209.682 6.30859 209.682 4.62891C209.682 2.34375 207.67 0.625 204.858 0.625C201.938 0.625 199.858 2.49023 199.858 5.08789Z" fill="black"/>
</svg>
